<?xml version="1.0" encoding="utf-8" standalone="no"?>
<!DOCTYPE svg PUBLIC "-//W3C//DTD SVG 1.1//EN"
  "http://www.w3.org/Graphics/SVG/1.1/DTD/svg11.dtd">
<svg xmlns:xlink="http://www.w3.org/1999/xlink" width="568.8pt" height="280.8pt" viewBox="0 0 568.8 280.8" xmlns="http://www.w3.org/2000/svg" version="1.1">
 <metadata>
  <rdf:RDF xmlns:dc="http://purl.org/dc/elements/1.1/" xmlns:cc="http://creativecommons.org/ns#" xmlns:rdf="http://www.w3.org/1999/02/22-rdf-syntax-ns#">
   <cc:Work>
    <dc:type rdf:resource="http://purl.org/dc/dcmitype/StillImage"/>
    <dc:date>2025-07-29T17:29:52.488869</dc:date>
    <dc:format>image/svg+xml</dc:format>
    <dc:creator>
     <cc:Agent>
      <dc:title>Matplotlib v3.8.4, https://matplotlib.org/</dc:title>
     </cc:Agent>
    </dc:creator>
   </cc:Work>
  </rdf:RDF>
 </metadata>
 <defs>
  <style type="text/css">*{stroke-linejoin: round; stroke-linecap: butt}</style>
 </defs>
 <g id="figure_1">
  <g id="patch_1">
   <path d="M 0 280.8 
L 568.8 280.8 
L 568.8 0 
L 0 0 
z
" style="fill: #ffffff"/>
  </g>
  <g id="axes_1">
   <g id="LineCollection_1">
    <path d="M 253.153522 30.317355 
L 442.5433 41.367372 
" clip-path="url(#pf7d512f766)" style="fill: none; stroke: #d3d3d3; stroke-width: 2"/>
    <path d="M 253.153522 30.317355 
L 55.309091 73.218574 
" clip-path="url(#pf7d512f766)" style="fill: none; stroke: #d3d3d3; stroke-width: 2"/>
    <path d="M 442.5433 41.367372 
L 358.2664 250.482645 
" clip-path="url(#pf7d512f766)" style="fill: none; stroke: #d3d3d3; stroke-width: 2"/>
    <path d="M 442.5433 41.367372 
L 513.490909 49.23339 
" clip-path="url(#pf7d512f766)" style="fill: none; stroke: #d3d3d3; stroke-width: 2"/>
    <path d="M 358.2664 250.482645 
L 513.490909 49.23339 
" clip-path="url(#pf7d512f766)" style="fill: none; stroke: #d3d3d3; stroke-width: 2"/>
    <path d="M 358.2664 250.482645 
L 55.309091 73.218574 
" clip-path="url(#pf7d512f766)" style="fill: none; stroke: #d3d3d3; stroke-width: 2"/>
   </g>
   <g id="LineCollection_2">
    <path d="M 358.2664 250.482645 
L 442.5433 41.367372 
" clip-path="url(#pf7d512f766)" style="fill: none; stroke: #dc143c; stroke-opacity: 0.9; stroke-width: 3"/>
    <path d="M 442.5433 41.367372 
L 253.153522 30.317355 
" clip-path="url(#pf7d512f766)" style="fill: none; stroke: #dc143c; stroke-opacity: 0.9; stroke-width: 3"/>
   </g>
   <g id="text_1">
    <g id="patch_2">
     <path d="M 330.040302 42.655737 
L 364.740664 44.680342 
Q 367.735571 44.855081 367.91031 41.860174 
L 368.474025 32.198481 
Q 368.648764 29.203574 365.653857 29.028835 
L 330.953495 27.00423 
Q 327.958588 26.829491 327.783849 29.824397 
L 327.220134 39.486091 
Q 327.045395 42.480998 330.040302 42.655737 
z
" clip-path="url(#pf7d512f766)" style="fill: #ffffff; stroke: #ffffff; stroke-linejoin: miter"/>
    </g>
    <g clip-path="url(#pf7d512f766)">
     <!-- 22 min -->
     <g transform="translate(330.336175 37.584673) rotate(-356.660842) scale(0.1 -0.1)">
      <defs>
       <path id="DejaVuSans-32" d="M 1228 531 
L 3431 531 
L 3431 0 
L 469 0 
L 469 531 
Q 828 903 1448 1529 
Q 2069 2156 2228 2338 
Q 2531 2678 2651 2914 
Q 2772 3150 2772 3378 
Q 2772 3750 2511 3984 
Q 2250 4219 1831 4219 
Q 1534 4219 1204 4116 
Q 875 4013 500 3803 
L 500 4441 
Q 881 4594 1212 4672 
Q 1544 4750 1819 4750 
Q 2544 4750 2975 4387 
Q 3406 4025 3406 3419 
Q 3406 3131 3298 2873 
Q 3191 2616 2906 2266 
Q 2828 2175 2409 1742 
Q 1991 1309 1228 531 
z
" transform="scale(0.015625)"/>
       <path id="DejaVuSans-20" transform="scale(0.015625)"/>
       <path id="DejaVuSans-6d" d="M 3328 2828 
Q 3544 3216 3844 3400 
Q 4144 3584 4550 3584 
Q 5097 3584 5394 3201 
Q 5691 2819 5691 2113 
L 5691 0 
L 5113 0 
L 5113 2094 
Q 5113 2597 4934 2840 
Q 4756 3084 4391 3084 
Q 3944 3084 3684 2787 
Q 3425 2491 3425 1978 
L 3425 0 
L 2847 0 
L 2847 2094 
Q 2847 2600 2669 2842 
Q 2491 3084 2119 3084 
Q 1678 3084 1418 2786 
Q 1159 2488 1159 1978 
L 1159 0 
L 581 0 
L 581 3500 
L 1159 3500 
L 1159 2956 
Q 1356 3278 1631 3431 
Q 1906 3584 2284 3584 
Q 2666 3584 2933 3390 
Q 3200 3197 3328 2828 
z
" transform="scale(0.015625)"/>
       <path id="DejaVuSans-69" d="M 603 3500 
L 1178 3500 
L 1178 0 
L 603 0 
L 603 3500 
z
M 603 4863 
L 1178 4863 
L 1178 4134 
L 603 4134 
L 603 4863 
z
" transform="scale(0.015625)"/>
       <path id="DejaVuSans-6e" d="M 3513 2113 
L 3513 0 
L 2938 0 
L 2938 2094 
Q 2938 2591 2744 2837 
Q 2550 3084 2163 3084 
Q 1697 3084 1428 2787 
Q 1159 2491 1159 1978 
L 1159 0 
L 581 0 
L 581 3500 
L 1159 3500 
L 1159 2956 
Q 1366 3272 1645 3428 
Q 1925 3584 2291 3584 
Q 2894 3584 3203 3211 
Q 3513 2838 3513 2113 
z
" transform="scale(0.015625)"/>
      </defs>
      <use xlink:href="#DejaVuSans-32"/>
      <use xlink:href="#DejaVuSans-32" x="63.623047"/>
      <use xlink:href="#DejaVuSans-20" x="127.246094"/>
      <use xlink:href="#DejaVuSans-6d" x="159.033203"/>
      <use xlink:href="#DejaVuSans-69" x="256.445312"/>
      <use xlink:href="#DejaVuSans-6e" x="284.228516"/>
     </g>
    </g>
   </g>
   <g id="text_2">
    <g id="patch_3">
     <path d="M 138.908691 63.111815 
L 172.878591 55.745674 
Q 175.810453 55.109919 175.174699 52.178057 
L 173.123729 42.719747 
Q 172.487974 39.787885 169.556112 40.423639 
L 135.586212 47.789781 
Q 132.65435 48.425535 133.290104 51.357398 
L 135.341074 60.815708 
Q 135.976829 63.74757 138.908691 63.111815 
z
" clip-path="url(#pf7d512f766)" style="fill: #ffffff; stroke: #ffffff; stroke-linejoin: miter"/>
    </g>
    <g clip-path="url(#pf7d512f766)">
     <!-- 32 min -->
     <g transform="translate(137.832213 58.147501) rotate(-12.234783) scale(0.1 -0.1)">
      <defs>
       <path id="DejaVuSans-33" d="M 2597 2516 
Q 3050 2419 3304 2112 
Q 3559 1806 3559 1356 
Q 3559 666 3084 287 
Q 2609 -91 1734 -91 
Q 1441 -91 1130 -33 
Q 819 25 488 141 
L 488 750 
Q 750 597 1062 519 
Q 1375 441 1716 441 
Q 2309 441 2620 675 
Q 2931 909 2931 1356 
Q 2931 1769 2642 2001 
Q 2353 2234 1838 2234 
L 1294 2234 
L 1294 2753 
L 1863 2753 
Q 2328 2753 2575 2939 
Q 2822 3125 2822 3475 
Q 2822 3834 2567 4026 
Q 2313 4219 1838 4219 
Q 1578 4219 1281 4162 
Q 984 4106 628 3988 
L 628 4550 
Q 988 4650 1302 4700 
Q 1616 4750 1894 4750 
Q 2613 4750 3031 4423 
Q 3450 4097 3450 3541 
Q 3450 3153 3228 2886 
Q 3006 2619 2597 2516 
z
" transform="scale(0.015625)"/>
      </defs>
      <use xlink:href="#DejaVuSans-33"/>
      <use xlink:href="#DejaVuSans-32" x="63.623047"/>
      <use xlink:href="#DejaVuSans-20" x="127.246094"/>
      <use xlink:href="#DejaVuSans-6d" x="159.033203"/>
      <use xlink:href="#DejaVuSans-69" x="256.445312"/>
      <use xlink:href="#DejaVuSans-6e" x="284.228516"/>
     </g>
    </g>
   </g>
   <g id="text_3">
    <g id="patch_4">
     <path d="M 401.178772 164.975886 
L 414.171872 132.73626 
Q 415.293276 129.953734 412.51075 128.83233 
L 403.534204 125.214634 
Q 400.751678 124.09323 399.630274 126.875756 
L 386.637173 159.115382 
Q 385.515769 161.897909 388.298296 163.019313 
L 397.274842 166.637008 
Q 400.057368 167.758412 401.178772 164.975886 
z
" clip-path="url(#pf7d512f766)" style="fill: #ffffff; stroke: #ffffff; stroke-linejoin: miter"/>
    </g>
    <g clip-path="url(#pf7d512f766)">
     <!-- 33 min -->
     <g transform="translate(396.467317 163.077092) rotate(-68.049753) scale(0.1 -0.1)">
      <use xlink:href="#DejaVuSans-33"/>
      <use xlink:href="#DejaVuSans-33" x="63.623047"/>
      <use xlink:href="#DejaVuSans-20" x="127.246094"/>
      <use xlink:href="#DejaVuSans-6d" x="159.033203"/>
      <use xlink:href="#DejaVuSans-69" x="256.445312"/>
      <use xlink:href="#DejaVuSans-6e" x="284.228516"/>
     </g>
    </g>
   </g>
   <g id="text_4">
    <g id="patch_5">
     <path d="M 459.876074 51.176166 
L 494.423761 55.006496 
Q 497.405491 55.337082 497.736078 52.355353 
L 498.802565 42.736168 
Q 499.133151 39.754438 496.151422 39.423852 
L 461.603734 35.593522 
Q 458.622004 35.262935 458.291417 38.244665 
L 457.224931 47.863849 
Q 456.894344 50.845579 459.876074 51.176166 
z
" clip-path="url(#pf7d512f766)" style="fill: #ffffff; stroke: #ffffff; stroke-linejoin: miter"/>
    </g>
    <g clip-path="url(#pf7d512f766)">
     <!-- 15 min -->
     <g transform="translate(460.435833 46.127414) rotate(-353.673409) scale(0.1 -0.1)">
      <defs>
       <path id="DejaVuSans-31" d="M 794 531 
L 1825 531 
L 1825 4091 
L 703 3866 
L 703 4441 
L 1819 4666 
L 2450 4666 
L 2450 531 
L 3481 531 
L 3481 0 
L 794 0 
L 794 531 
z
" transform="scale(0.015625)"/>
       <path id="DejaVuSans-35" d="M 691 4666 
L 3169 4666 
L 3169 4134 
L 1269 4134 
L 1269 2991 
Q 1406 3038 1543 3061 
Q 1681 3084 1819 3084 
Q 2600 3084 3056 2656 
Q 3513 2228 3513 1497 
Q 3513 744 3044 326 
Q 2575 -91 1722 -91 
Q 1428 -91 1123 -41 
Q 819 9 494 109 
L 494 744 
Q 775 591 1075 516 
Q 1375 441 1709 441 
Q 2250 441 2565 725 
Q 2881 1009 2881 1497 
Q 2881 1984 2565 2268 
Q 2250 2553 1709 2553 
Q 1456 2553 1204 2497 
Q 953 2441 691 2322 
L 691 4666 
z
" transform="scale(0.015625)"/>
      </defs>
      <use xlink:href="#DejaVuSans-31"/>
      <use xlink:href="#DejaVuSans-35" x="63.623047"/>
      <use xlink:href="#DejaVuSans-20" x="127.246094"/>
      <use xlink:href="#DejaVuSans-6d" x="159.033203"/>
      <use xlink:href="#DejaVuSans-69" x="256.445312"/>
      <use xlink:href="#DejaVuSans-6e" x="284.228516"/>
     </g>
    </g>
   </g>
   <g id="text_5">
    <g id="patch_6">
     <path d="M 431.472231 168.406274 
L 452.701241 140.88277 
Q 454.533467 138.507281 452.157978 136.675055 
L 444.494552 130.764218 
Q 442.119063 128.931992 440.286837 131.307481 
L 419.057827 158.830985 
Q 417.225601 161.206474 419.60109 163.0387 
L 427.264516 168.949537 
Q 429.640005 170.781763 431.472231 168.406274 
z
" clip-path="url(#pf7d512f766)" style="fill: #ffffff; stroke: #ffffff; stroke-linejoin: miter"/>
    </g>
    <g clip-path="url(#pf7d512f766)">
     <!-- 26 min -->
     <g transform="translate(427.449984 165.303896) rotate(-52.356827) scale(0.1 -0.1)">
      <defs>
       <path id="DejaVuSans-36" d="M 2113 2584 
Q 1688 2584 1439 2293 
Q 1191 2003 1191 1497 
Q 1191 994 1439 701 
Q 1688 409 2113 409 
Q 2538 409 2786 701 
Q 3034 994 3034 1497 
Q 3034 2003 2786 2293 
Q 2538 2584 2113 2584 
z
M 3366 4563 
L 3366 3988 
Q 3128 4100 2886 4159 
Q 2644 4219 2406 4219 
Q 1781 4219 1451 3797 
Q 1122 3375 1075 2522 
Q 1259 2794 1537 2939 
Q 1816 3084 2150 3084 
Q 2853 3084 3261 2657 
Q 3669 2231 3669 1497 
Q 3669 778 3244 343 
Q 2819 -91 2113 -91 
Q 1303 -91 875 529 
Q 447 1150 447 2328 
Q 447 3434 972 4092 
Q 1497 4750 2381 4750 
Q 2619 4750 2861 4703 
Q 3103 4656 3366 4563 
z
" transform="scale(0.015625)"/>
      </defs>
      <use xlink:href="#DejaVuSans-32"/>
      <use xlink:href="#DejaVuSans-36" x="63.623047"/>
      <use xlink:href="#DejaVuSans-20" x="127.246094"/>
      <use xlink:href="#DejaVuSans-6d" x="159.033203"/>
      <use xlink:href="#DejaVuSans-69" x="256.445312"/>
      <use xlink:href="#DejaVuSans-6e" x="284.228516"/>
     </g>
    </g>
   </g>
   <g id="text_6">
    <g id="patch_7">
     <path d="M 187.828581 159.839714 
L 217.82974 177.393763 
Q 220.41907 178.908812 221.934118 176.319483 
L 226.821729 167.966198 
Q 228.336777 165.376868 225.747448 163.861819 
L 195.746289 146.30777 
Q 193.15696 144.792722 191.641911 147.382051 
L 186.754301 155.735336 
Q 185.239252 158.324666 187.828581 159.839714 
z
" clip-path="url(#pf7d512f766)" style="fill: #ffffff; stroke: #ffffff; stroke-linejoin: miter"/>
    </g>
    <g clip-path="url(#pf7d512f766)">
     <!-- 50 min -->
     <g transform="translate(190.393906 155.455386) rotate(-329.667569) scale(0.1 -0.1)">
      <defs>
       <path id="DejaVuSans-30" d="M 2034 4250 
Q 1547 4250 1301 3770 
Q 1056 3291 1056 2328 
Q 1056 1369 1301 889 
Q 1547 409 2034 409 
Q 2525 409 2770 889 
Q 3016 1369 3016 2328 
Q 3016 3291 2770 3770 
Q 2525 4250 2034 4250 
z
M 2034 4750 
Q 2819 4750 3233 4129 
Q 3647 3509 3647 2328 
Q 3647 1150 3233 529 
Q 2819 -91 2034 -91 
Q 1250 -91 836 529 
Q 422 1150 422 2328 
Q 422 3509 836 4129 
Q 1250 4750 2034 4750 
z
" transform="scale(0.015625)"/>
      </defs>
      <use xlink:href="#DejaVuSans-35"/>
      <use xlink:href="#DejaVuSans-30" x="63.623047"/>
      <use xlink:href="#DejaVuSans-20" x="127.246094"/>
      <use xlink:href="#DejaVuSans-6d" x="159.033203"/>
      <use xlink:href="#DejaVuSans-69" x="256.445312"/>
      <use xlink:href="#DejaVuSans-6e" x="284.228516"/>
     </g>
    </g>
   </g>
   <g id="PathCollection_1">
    <defs>
     <path id="mf43c717e70" d="M 0 4.472136 
C 1.186024 4.472136 2.323632 4.000923 3.162278 3.162278 
C 4.000923 2.323632 4.472136 1.186024 4.472136 0 
C 4.472136 -1.186024 4.000923 -2.323632 3.162278 -3.162278 
C 2.323632 -4.000923 1.186024 -4.472136 0 -4.472136 
C -1.186024 -4.472136 -2.323632 -4.000923 -3.162278 -3.162278 
C -4.000923 -2.323632 -4.472136 -1.186024 -4.472136 0 
C -4.472136 1.186024 -4.000923 2.323632 -3.162278 3.162278 
C -2.323632 4.000923 -1.186024 4.472136 0 4.472136 
z
" style="stroke: #1f78b4; stroke-opacity: 0.8"/>
    </defs>
    <g clip-path="url(#pf7d512f766)">
     <use xlink:href="#mf43c717e70" x="253.153522" y="30.317355" style="fill: #1f78b4; fill-opacity: 0.8; stroke: #1f78b4; stroke-opacity: 0.8"/>
     <use xlink:href="#mf43c717e70" x="442.5433" y="41.367372" style="fill: #1f78b4; fill-opacity: 0.8; stroke: #1f78b4; stroke-opacity: 0.8"/>
     <use xlink:href="#mf43c717e70" x="358.2664" y="250.482645" style="fill: #1f78b4; fill-opacity: 0.8; stroke: #1f78b4; stroke-opacity: 0.8"/>
     <use xlink:href="#mf43c717e70" x="513.490909" y="49.23339" style="fill: #1f78b4; fill-opacity: 0.8; stroke: #1f78b4; stroke-opacity: 0.8"/>
     <use xlink:href="#mf43c717e70" x="55.309091" y="73.218574" style="fill: #1f78b4; fill-opacity: 0.8; stroke: #1f78b4; stroke-opacity: 0.8"/>
    </g>
   </g>
   <g id="PathCollection_2">
    <defs>
     <path id="m43adf9a3e9" d="M 0 5 
C 1.326016 5 2.597899 4.473168 3.535534 3.535534 
C 4.473168 2.597899 5 1.326016 5 0 
C 5 -1.326016 4.473168 -2.597899 3.535534 -3.535534 
C 2.597899 -4.473168 1.326016 -5 0 -5 
C -1.326016 -5 -2.597899 -4.473168 -3.535534 -3.535534 
C -4.473168 -2.597899 -5 -1.326016 -5 0 
C -5 1.326016 -4.473168 2.597899 -3.535534 3.535534 
C -2.597899 4.473168 -1.326016 5 0 5 
z
" style="stroke: #dc143c; stroke-opacity: 0.9"/>
    </defs>
    <g clip-path="url(#pf7d512f766)">
     <use xlink:href="#m43adf9a3e9" x="358.2664" y="250.482645" style="fill: #dc143c; fill-opacity: 0.9; stroke: #dc143c; stroke-opacity: 0.9"/>
     <use xlink:href="#m43adf9a3e9" x="442.5433" y="41.367372" style="fill: #dc143c; fill-opacity: 0.9; stroke: #dc143c; stroke-opacity: 0.9"/>
     <use xlink:href="#m43adf9a3e9" x="253.153522" y="30.317355" style="fill: #dc143c; fill-opacity: 0.9; stroke: #dc143c; stroke-opacity: 0.9"/>
    </g>
   </g>
   <g id="text_7">
    <g id="patch_8">
     <path d="M 229.153522 24.566406 
L 277.153522 24.566406 
Q 280.753522 24.566406 280.753522 20.966406 
L 280.753522 9.845781 
Q 280.753522 6.245781 277.153522 6.245781 
L 229.153522 6.245781 
Q 225.553522 6.245781 225.553522 9.845781 
L 225.553522 20.966406 
Q 225.553522 24.566406 229.153522 24.566406 
z
" style="fill: #ffffff; opacity: 0.9; stroke: #808080; stroke-linejoin: miter"/>
    </g>
    <!-- 東小金井 -->
    <g transform="translate(229.153522 18.575781) scale(0.12 -0.12)">
     <defs>
      <path id="ArialUnicodeMS-6771" d="M 6144 359 
L 5797 -97 
Q 4116 497 3456 1503 
L 3450 1491 
L 3450 -453 
L 2963 -453 
L 2963 1491 
L 2950 1491 
Q 2191 394 653 -122 
L 319 313 
Q 1753 756 2450 1625 
L 1209 1625 
L 1209 3872 
L 2963 3872 
L 2963 4306 
L 641 4306 
L 641 4775 
L 2963 4775 
L 2963 5319 
L 3450 5319 
L 3450 4775 
L 5838 4775 
L 5838 4306 
L 3450 4306 
L 3450 3872 
L 5269 3872 
L 5269 1625 
L 4025 1625 
Q 4947 684 6144 359 
z
M 4781 2981 
L 4781 3406 
L 3450 3406 
L 3450 2981 
L 4781 2981 
z
M 2963 2981 
L 2963 3406 
L 1697 3406 
L 1697 2981 
L 2963 2981 
z
M 4781 2094 
L 4781 2516 
L 3450 2516 
L 3450 2094 
L 4781 2094 
z
M 2963 2094 
L 2963 2516 
L 1697 2516 
L 1697 2094 
L 2963 2094 
z
" transform="scale(0.015625)"/>
      <path id="ArialUnicodeMS-5c0f" d="M 3475 434 
Q 3475 59 3267 -100 
Q 3059 -259 2634 -259 
L 2244 -250 
Q 2147 -250 2069 -256 
L 1856 269 
Q 2253 238 2528 238 
Q 2841 238 2905 281 
Q 2969 325 2969 434 
L 2969 5234 
L 3475 5234 
L 3475 434 
z
M 5931 1709 
L 5472 1484 
Q 5088 2713 4019 3688 
L 4475 3928 
Q 5584 2922 5931 1709 
z
M 2181 3706 
Q 1769 2356 850 1459 
L 453 1791 
Q 1372 2700 1753 3922 
L 2181 3706 
z
" transform="scale(0.015625)"/>
      <path id="ArialUnicodeMS-91d1" d="M 6144 3163 
L 5753 2766 
Q 5238 2934 4647 3328 
L 4647 3072 
L 3488 3072 
L 3488 2328 
L 5228 2328 
L 5228 1869 
L 3488 1869 
L 3488 325 
L 5778 325 
L 5778 -134 
L 709 -134 
L 709 325 
L 3003 325 
L 3003 1869 
L 1234 1869 
L 1234 2328 
L 3003 2328 
L 3003 3072 
L 1838 3072 
L 1838 3341 
Q 1266 2969 672 2700 
L 347 3103 
Q 2378 4019 3225 5478 
L 3622 5209 
L 3531 5044 
Q 4700 3588 6144 3163 
z
M 4378 3525 
Q 3634 4109 3244 4647 
Q 2638 3903 2113 3547 
L 2113 3525 
L 4378 3525 
z
M 5025 1522 
Q 4675 769 4141 359 
L 3706 659 
Q 4281 1072 4634 1806 
L 5025 1522 
z
M 2644 628 
L 2175 428 
Q 1897 1125 1441 1544 
L 1875 1747 
Q 2356 1334 2644 628 
z
" transform="scale(0.015625)"/>
      <path id="ArialUnicodeMS-4e95" d="M 5984 1753 
L 4453 1753 
L 4453 -422 
L 3969 -422 
L 3969 1753 
L 2484 1753 
Q 2175 269 728 -447 
L 403 -6 
Q 1741 619 1978 1753 
L 506 1753 
L 506 2222 
L 2069 2222 
Q 2106 2684 2106 3513 
L 844 3513 
L 844 3981 
L 2106 3981 
L 2106 5306 
L 2591 5306 
L 2591 3981 
L 3969 3981 
L 3969 5306 
L 4453 5306 
L 4453 3981 
L 5613 3981 
L 5613 3513 
L 4453 3513 
L 4453 2222 
L 5984 2222 
L 5984 1753 
z
M 3969 2222 
L 3969 3513 
L 2591 3513 
Q 2572 2291 2547 2222 
L 3969 2222 
z
" transform="scale(0.015625)"/>
     </defs>
     <use xlink:href="#ArialUnicodeMS-6771"/>
     <use xlink:href="#ArialUnicodeMS-5c0f" x="100"/>
     <use xlink:href="#ArialUnicodeMS-91d1" x="200"/>
     <use xlink:href="#ArialUnicodeMS-4e95" x="300"/>
    </g>
   </g>
   <g id="text_8">
    <g id="patch_9">
     <path d="M 430.5433 35.616423 
L 454.5433 35.616423 
Q 458.1433 35.616423 458.1433 32.016423 
L 458.1433 21.036423 
Q 458.1433 17.436423 454.5433 17.436423 
L 430.5433 17.436423 
Q 426.9433 17.436423 426.9433 21.036423 
L 426.9433 32.016423 
Q 426.9433 35.616423 430.5433 35.616423 
z
" style="fill: #ffffff; opacity: 0.9; stroke: #808080; stroke-linejoin: miter"/>
    </g>
    <!-- 新宿 -->
    <g transform="translate(430.5433 29.625798) scale(0.12 -0.12)">
     <defs>
      <path id="ArialUnicodeMS-65b0" d="M 6041 2938 
L 5300 2938 
L 5300 -397 
L 4813 -397 
L 4813 2938 
L 4109 2938 
L 4109 2216 
Q 4109 700 3334 -359 
L 2906 -72 
Q 3622 853 3622 2456 
L 3622 4709 
Q 4644 4825 5544 5313 
L 5850 4916 
Q 5141 4503 4109 4319 
L 4109 3406 
L 6041 3406 
L 6041 2938 
z
M 3353 4184 
L 525 4184 
L 525 4653 
L 1716 4653 
L 1716 5281 
L 2222 5281 
L 2222 4653 
L 3353 4653 
L 3353 4184 
z
M 3406 2719 
L 2203 2719 
L 2203 2144 
L 3250 2144 
L 3250 1678 
L 2203 1678 
L 2203 1428 
L 2456 1619 
Q 2981 1281 3309 744 
L 2950 416 
Q 2672 931 2203 1281 
L 2203 -397 
L 1716 -397 
L 1716 1253 
Q 1316 625 703 178 
L 347 550 
Q 1003 959 1409 1678 
L 628 1678 
L 628 2144 
L 1716 2144 
L 1716 2719 
L 453 2719 
L 453 3188 
L 1325 3188 
Q 1147 3659 884 3975 
L 1306 4147 
Q 1631 3813 1806 3188 
L 2228 3188 
Q 2422 3559 2584 4147 
L 3047 3969 
Q 2906 3544 2719 3188 
L 3406 3188 
L 3406 2719 
z
" transform="scale(0.015625)"/>
      <path id="ArialUnicodeMS-5bbf" d="M 5797 3603 
L 5650 3603 
L 5650 3291 
L 4147 3291 
Q 4025 2800 3969 2663 
L 5394 2663 
L 5394 -428 
L 4909 -428 
L 4909 -78 
L 3022 -78 
L 3022 -447 
L 2534 -447 
L 2534 2663 
L 3456 2663 
Q 3556 2906 3641 3291 
L 2272 3291 
L 2272 3756 
L 5313 3756 
L 5313 4197 
L 1088 4197 
L 1088 3500 
L 603 3500 
L 603 4659 
L 2956 4659 
L 2956 5300 
L 3444 5300 
L 3444 4659 
L 5797 4659 
L 5797 3603 
z
M 4909 1588 
L 4909 2194 
L 3022 2194 
L 3022 1588 
L 4909 1588 
z
M 4909 391 
L 4909 1119 
L 3022 1119 
L 3022 391 
L 4909 391 
z
M 2222 3884 
Q 2172 3566 1953 3122 
L 1734 2681 
L 1734 -469 
L 1247 -469 
L 1247 1972 
Q 1016 1706 684 1428 
L 275 1759 
Q 1453 2697 1797 4122 
L 2222 3884 
z
" transform="scale(0.015625)"/>
     </defs>
     <use xlink:href="#ArialUnicodeMS-65b0"/>
     <use xlink:href="#ArialUnicodeMS-5bbf" x="100"/>
    </g>
   </g>
   <g id="text_9">
    <g id="patch_10">
     <path d="M 346.2664 274.413594 
L 370.2664 274.413594 
Q 373.8664 274.413594 373.8664 270.813594 
L 373.8664 259.833594 
Q 373.8664 256.233594 370.2664 256.233594 
L 346.2664 256.233594 
Q 342.6664 256.233594 342.6664 259.833594 
L 342.6664 270.813594 
Q 342.6664 274.413594 346.2664 274.413594 
z
" style="fill: #ffffff; opacity: 0.9; stroke: #808080; stroke-linejoin: miter"/>
    </g>
    <!-- 横浜 -->
    <g transform="translate(346.2664 268.422969) scale(0.12 -0.12)">
     <defs>
      <path id="ArialUnicodeMS-6a2a" d="M 6041 3309 
L 4294 3309 
L 4294 3084 
L 5428 3084 
L 5428 966 
L 2656 966 
L 2656 3084 
L 3809 3084 
L 3809 3309 
L 2138 3309 
L 2138 3553 
L 1684 3553 
L 1684 2888 
L 1888 3034 
Q 2256 2703 2491 2156 
L 2094 1825 
Q 1903 2372 1684 2553 
L 1684 -459 
L 1197 -459 
L 1197 2222 
Q 966 1644 538 1100 
L 166 1416 
Q 931 2400 1172 3553 
L 428 3553 
L 428 4019 
L 1197 4019 
L 1197 5259 
L 1684 5259 
L 1684 4019 
L 2303 4019 
L 2303 3775 
L 3213 3775 
L 3213 4178 
L 2553 4178 
L 2553 4647 
L 3213 4647 
L 3213 5197 
L 3700 5197 
L 3700 4647 
L 4416 4647 
L 4416 5197 
L 4903 5197 
L 4903 4647 
L 5588 4647 
L 5588 4178 
L 4903 4178 
L 4903 3775 
L 6041 3775 
L 6041 3309 
z
M 4416 3775 
L 4416 4178 
L 3700 4178 
L 3700 3775 
L 4416 3775 
z
M 4966 2272 
L 4966 2619 
L 4294 2619 
L 4294 2272 
L 4966 2272 
z
M 3809 2272 
L 3809 2619 
L 3144 2619 
L 3144 2272 
L 3809 2272 
z
M 4966 1434 
L 4966 1831 
L 4294 1831 
L 4294 1434 
L 4966 1434 
z
M 3809 1434 
L 3809 1831 
L 3144 1831 
L 3144 1434 
L 3809 1434 
z
M 3809 678 
Q 3166 -88 2316 -397 
L 1959 -50 
Q 2750 225 3406 872 
L 3809 678 
z
M 5919 -91 
L 5575 -397 
Q 5150 72 4300 622 
L 4628 863 
Q 5372 497 5919 -91 
z
" transform="scale(0.015625)"/>
      <path id="ArialUnicodeMS-6d5c" d="M 5947 1319 
L 1778 1319 
L 1778 1784 
L 2419 1784 
L 2419 4622 
Q 4166 4613 5319 5275 
L 5728 4928 
Q 4609 4241 2931 4153 
L 2931 3597 
L 5716 3597 
L 5716 3128 
L 4763 3128 
L 4763 1784 
L 5947 1784 
L 5947 1319 
z
M 4275 1784 
L 4275 3128 
L 2931 3128 
L 2931 1784 
L 4275 1784 
z
M 2209 4319 
L 1819 3994 
Q 1488 4566 750 4903 
L 1100 5216 
Q 1803 4909 2209 4319 
z
M 1806 3016 
L 1434 2656 
Q 1100 3238 300 3603 
L 666 3916 
Q 1309 3653 1806 3016 
z
M 1791 2106 
Q 1688 956 819 -231 
L 341 0 
Q 1203 1056 1338 2284 
L 1791 2106 
z
M 3559 856 
Q 2822 53 1709 -416 
L 1394 13 
Q 2541 431 3206 1191 
L 3559 856 
z
M 6163 -56 
L 5784 -409 
Q 4947 516 3969 831 
L 4353 1166 
Q 5297 866 6163 -56 
z
" transform="scale(0.015625)"/>
     </defs>
     <use xlink:href="#ArialUnicodeMS-6a2a"/>
     <use xlink:href="#ArialUnicodeMS-6d5c" x="100"/>
    </g>
   </g>
   <g id="text_10">
    <g id="patch_11">
     <path d="M 501.490909 43.482441 
L 525.490909 43.482441 
Q 529.090909 43.482441 529.090909 39.882441 
L 529.090909 28.902441 
Q 529.090909 25.302441 525.490909 25.302441 
L 501.490909 25.302441 
Q 497.890909 25.302441 497.890909 28.902441 
L 497.890909 39.882441 
Q 497.890909 43.482441 501.490909 43.482441 
z
" style="fill: #ffffff; opacity: 0.9; stroke: #808080; stroke-linejoin: miter"/>
    </g>
    <!-- 東京 -->
    <g transform="translate(501.490909 37.491816) scale(0.12 -0.12)">
     <defs>
      <path id="ArialUnicodeMS-4eac" d="M 5947 4153 
L 475 4153 
L 475 4641 
L 2938 4641 
L 2938 5281 
L 3444 5281 
L 3444 4641 
L 5947 4641 
L 5947 4153 
z
M 5006 1741 
L 3475 1741 
L 3475 109 
Q 3475 -122 3342 -265 
Q 3209 -409 2988 -409 
L 2316 -409 
L 2144 116 
Q 2672 78 2706 78 
Q 2988 78 2988 250 
L 2988 1741 
L 1416 1741 
L 1416 3641 
L 5006 3641 
L 5006 1741 
z
M 4519 2209 
L 4519 3175 
L 1900 3175 
L 1900 2209 
L 4519 2209 
z
M 6081 391 
L 5747 25 
Q 4806 944 3916 1147 
L 4231 1538 
Q 5175 1256 6081 391 
z
M 2509 1216 
Q 1788 400 634 -6 
L 341 428 
Q 1541 763 2188 1538 
L 2509 1216 
z
" transform="scale(0.015625)"/>
     </defs>
     <use xlink:href="#ArialUnicodeMS-6771"/>
     <use xlink:href="#ArialUnicodeMS-4eac" x="100"/>
    </g>
   </g>
   <g id="text_11">
    <g id="patch_12">
     <path d="M 37.309091 67.467625 
L 73.309091 67.467625 
Q 76.909091 67.467625 76.909091 63.867625 
L 76.909091 52.887625 
Q 76.909091 49.287625 73.309091 49.287625 
L 37.309091 49.287625 
Q 33.709091 49.287625 33.709091 52.887625 
L 33.709091 63.867625 
Q 33.709091 67.467625 37.309091 67.467625 
z
" style="fill: #ffffff; opacity: 0.9; stroke: #808080; stroke-linejoin: miter"/>
    </g>
    <!-- 八王子 -->
    <g transform="translate(37.309091 61.477) scale(0.12 -0.12)">
     <defs>
      <path id="ArialUnicodeMS-516b" d="M 6075 178 
L 5684 -206 
Q 3975 1272 3975 4353 
L 3975 4594 
L 2228 4594 
L 2228 5063 
L 4488 5063 
L 4488 4269 
Q 4488 1441 6075 178 
z
M 2350 4178 
Q 2275 2325 1859 1354 
Q 1444 384 666 -231 
L 281 147 
Q 1022 684 1411 1589 
Q 1800 2494 1844 4281 
L 2350 4178 
z
" transform="scale(0.015625)"/>
      <path id="ArialUnicodeMS-738b" d="M 5813 91 
L 588 91 
L 588 556 
L 2938 556 
L 2938 2328 
L 1191 2328 
L 1191 2797 
L 2938 2797 
L 2938 4434 
L 838 4434 
L 838 4903 
L 5538 4903 
L 5538 4434 
L 3425 4434 
L 3425 2797 
L 5191 2797 
L 5191 2328 
L 3425 2328 
L 3425 556 
L 5813 556 
L 5813 91 
z
" transform="scale(0.015625)"/>
      <path id="ArialUnicodeMS-5b50" d="M 5894 2328 
L 3566 2328 
L 3566 191 
Q 3566 -31 3425 -172 
Q 3284 -313 3034 -313 
L 2247 -313 
L 2016 184 
L 2822 147 
Q 3078 138 3078 447 
L 3078 2328 
L 628 2328 
L 628 2797 
L 3078 2797 
L 3078 3438 
Q 3856 3947 4403 4569 
L 1416 4569 
L 1416 5038 
L 5100 5038 
L 5100 4678 
Q 4438 3794 3566 3200 
L 3566 2797 
L 5894 2797 
L 5894 2328 
z
" transform="scale(0.015625)"/>
     </defs>
     <use xlink:href="#ArialUnicodeMS-516b"/>
     <use xlink:href="#ArialUnicodeMS-738b" x="100"/>
     <use xlink:href="#ArialUnicodeMS-5b50" x="200"/>
    </g>
   </g>
  </g>
 </g>
 <defs>
  <clipPath id="pf7d512f766">
   <rect x="7.2" y="7.2" width="554.4" height="266.4"/>
  </clipPath>
 </defs>
</svg>
